<svg width="25" height="25" viewBox="0 0 25 25" fill="none" xmlns="http://www.w3.org/2000/svg">
<path d="M15 15V17.2917C15 17.8995 14.7586 18.4823 14.3288 18.9121C13.899 19.3419 13.3161 19.5833 12.7083 19.5833H3.54167C2.93388 19.5833 2.35098 19.3419 1.92121 18.9121C1.49144 18.4823 1.25 17.8995 1.25 17.2917V3.54167C1.25 2.93388 1.49144 2.35098 1.92121 1.92121C2.35098 1.49144 2.93388 1.25 3.54167 1.25H12.25C13.5156 1.25 15 2.27609 15 3.54167V5.83333M18.6667 15L23.25 10.4167L18.6667 5.83333M7.66667 10.4167H22.3333" stroke="#595959" stroke-width="2" stroke-linecap="round" stroke-linejoin="round"/>
</svg>
